<?xml version="1.0" encoding="UTF-8" standalone="no"?>
<!-- Created with Inkscape (http://www.inkscape.org/) -->

<svg
   xmlns:dc="http://purl.org/dc/elements/1.1/"
   xmlns:cc="http://creativecommons.org/ns#"
   xmlns:rdf="http://www.w3.org/1999/02/22-rdf-syntax-ns#"
   xmlns:svg="http://www.w3.org/2000/svg"
   xmlns="http://www.w3.org/2000/svg"
   xmlns:sodipodi="http://sodipodi.sourceforge.net/DTD/sodipodi-0.dtd"
   xmlns:inkscape="http://www.inkscape.org/namespaces/inkscape"
   width="378.08212"
   height="157.41954"
   id="svg5427"
   version="1.1"
   inkscape:version="0.48.5 r10040"
   sodipodi:docname="Nouveau document 5">
  <defs
     id="defs5429" />
  <sodipodi:namedview
     id="base"
     pagecolor="#ffffff"
     bordercolor="#666666"
     borderopacity="1.0"
     inkscape:pageopacity="0.0"
     inkscape:pageshadow="2"
     inkscape:zoom="0.35"
     inkscape:cx="215.46963"
     inkscape:cy="104.42406"
     inkscape:document-units="px"
     inkscape:current-layer="layer1"
     showgrid="false"
     fit-margin-top="0"
     fit-margin-left="0"
     fit-margin-right="0"
     fit-margin-bottom="0"
     inkscape:window-width="1673"
     inkscape:window-height="840"
     inkscape:window-x="4"
     inkscape:window-y="44"
     inkscape:window-maximized="0" />
  <metadata
     id="metadata5432">
    <rdf:RDF>
      <cc:Work
         rdf:about="">
        <dc:format>image/svg+xml</dc:format>
        <dc:type
           rdf:resource="http://purl.org/dc/dcmitype/StillImage" />
        <dc:title></dc:title>
      </cc:Work>
    </rdf:RDF>
  </metadata>
  <g
     inkscape:label="Calque 1"
     inkscape:groupmode="layer"
     id="layer1"
     transform="translate(-159.53037,-479.3667)">
    <path
       d="m 350.59892,591.08131 c -2.0845,0 -3.74089,0.35847 -4.97095,1.04981 -1.23135,0.69134 -2.15261,1.61311 -2.76662,2.76534 -0.61606,1.15222 -1.01626,2.43247 -1.20216,3.84075 -0.19024,1.40827 -0.28319,2.84215 -0.28319,4.30164 0,1.17783 0.10908,2.45808 0.32006,3.84075 0.21509,1.38267 0.65524,2.68852 1.32634,3.89196 0.66804,1.20344 1.60134,2.20203 2.80554,2.99579 1.20216,0.81936 2.79453,1.20343 4.77098,1.20343 1.97722,0 3.56857,-0.38407 4.77277,-1.20343 1.20318,-0.79376 2.12445,-1.79235 2.7656,-2.99579 0.64217,-1.20344 1.06927,-2.50929 1.28435,-3.89196 0.21098,-1.38267 0.32108,-2.66292 0.32108,-3.84075 0,-1.17783 -0.1101,-2.45808 -0.32108,-3.86636 -0.21508,-1.38267 -0.64218,-2.68852 -1.28435,-3.89196 -0.64115,-1.20343 -1.56242,-2.20203 -2.7656,-2.99578 -1.2042,-0.79376 -2.79555,-1.20344 -4.77277,-1.20344 z m -18.76385,12.03435 c 0,-3.37986 0.34618,-6.37564 1.04238,-9.03856 0.69415,-2.63731 1.80438,-4.89055 3.32865,-6.73411 1.52119,-1.84356 3.45949,-3.25184 5.81208,-4.25043 2.35233,-0.97299 5.21497,-1.48509 8.58074,-1.48509 3.52965,0.12802 6.68112,0.92178 9.46387,2.40687 1.17501,0.64012 2.34029,1.48509 3.48868,2.48368 1.14915,1.0242 2.16618,2.30445 3.04853,3.81515 0.88004,1.5363 1.60134,3.32865 2.16234,5.42826 0.56306,2.074 0.84471,4.50648 0.84471,7.29742 0,2.76534 -0.25605,5.19782 -0.76277,7.29743 -0.50801,2.074 -1.17502,3.86635 -2.00334,5.35144 -0.83114,1.5107 -1.76418,2.73974 -2.80861,3.73833 -1.04212,0.9986 -2.12342,1.81796 -3.24748,2.45808 -2.56742,1.43388 -5.50713,2.17643 -8.82169,2.22764 -1.65946,-0.10242 -3.2608,-0.43529 -4.8099,-1.0242 -1.3394,-0.53771 -2.70261,-1.40828 -4.09194,-2.58611 -1.39035,-1.17783 -2.53848,-2.86776 -3.44771,-5.121 l 1.76239,2.33006 0,19.07572 -9.54093,0 0,-33.67057"
       style="fill:#ed184e;fill-opacity:1;fill-rule:nonzero;stroke:none"
       id="path4055"
       inkscape:connector-curvature="0" />
    <path
       d="m 393.1022,591.08131 c -1.97671,0 -3.56934,0.40969 -4.77277,1.20344 -1.20344,0.79376 -2.12522,1.79235 -2.7679,2.99579 -0.64013,1.20343 -1.06517,2.50929 -1.28025,3.89196 -0.21509,1.40827 -0.32263,2.68852 -0.32263,3.86635 0,1.17783 0.10754,2.45808 0.32263,3.84075 0.21508,1.38267 0.64012,2.68853 1.28025,3.89196 0.64268,1.20344 1.56446,2.20203 2.7679,2.99579 1.20343,0.81936 2.79606,1.20343 4.77277,1.20343 1.9767,0 3.56678,-0.38407 4.77277,-1.20343 1.20344,-0.79376 2.12266,-1.79235 2.76534,-2.99579 0.64269,-1.20343 1.06773,-2.50929 1.28281,-3.89196 0.21252,-1.38267 0.32262,-2.66292 0.32262,-3.84075 0,-1.17783 -0.1101,-2.45808 -0.32262,-3.86635 -0.21508,-1.38267 -0.64012,-2.68853 -1.28281,-3.89196 -0.64268,-1.20344 -1.5619,-2.20203 -2.76534,-2.99579 -1.20599,-0.79375 -2.79607,-1.20344 -4.77277,-1.20344 z m -19.00659,11.95754 c 0,-2.79094 0.26629,-5.22342 0.80399,-7.29742 0.53259,-2.09962 1.24185,-3.89197 2.12522,-5.42827 0.88081,-1.51069 1.89477,-2.79094 3.04443,-3.81514 1.14967,-0.99859 2.3147,-1.84356 3.4874,-2.48369 2.78071,-1.48508 5.96341,-2.27884 9.54555,-2.40687 3.52837,0.12803 6.68034,0.92179 9.46361,2.40687 1.17527,0.64013 2.34029,1.48509 3.4874,2.48369 1.14966,1.0242 2.16618,2.30445 3.04955,3.81514 0.87825,1.5363 1.60032,3.32865 2.16363,5.42827 0.56075,2.074 0.8424,4.50648 0.8424,7.29742 0,2.76534 -0.28165,5.19781 -0.8424,7.29743 -0.56331,2.074 -1.28538,3.86635 -2.16363,5.35144 -0.88337,1.51069 -1.89989,2.73974 -3.04955,3.73833 -1.14711,0.9986 -2.31213,1.81796 -3.4874,2.45808 -2.78327,1.43388 -5.93524,2.17643 -9.46361,2.22764 -3.58214,-0.0512 -6.76484,-0.79376 -9.54555,-2.22764 -1.1727,-0.64012 -2.33773,-1.45948 -3.4874,-2.45808 -1.14966,-0.99859 -2.16362,-2.22764 -3.04443,-3.73833 -0.88337,-1.48509 -1.59263,-3.27744 -2.12522,-5.35144 -0.5377,-2.09962 -0.80399,-4.53209 -0.80399,-7.29743"
       style="fill:#ed184e;fill-opacity:1;fill-rule:nonzero;stroke:none"
       id="path4057"
       inkscape:connector-curvature="0" />
    <path
       d="m 416.91997,594.53799 c 0,-2.79094 0.58891,-4.96737 1.76162,-6.55488 1.17783,-1.56191 2.4632,-2.76534 3.851,-3.5591 1.65664,-0.97298 3.52836,-1.5619 5.61517,-1.76674 l 11.22779,0 0,9.70429 -7.53811,0 c -1.07285,0 -1.94086,0.17924 -2.60659,0.56332 -0.67085,0.38407 -1.19063,0.76815 -1.56702,1.20343 -0.42505,0.53771 -0.72206,1.12662 -0.88337,1.76675 l 0,27.42295 -9.86049,0 0,-28.78002"
       style="fill:#ed184e;fill-opacity:1;fill-rule:nonzero;stroke:none"
       id="path4059"
       inkscape:connector-curvature="0" />
    <path
       d="m 453.89103,592.20793 0,17.87229 c 0.15875,0.64013 0.45321,1.22904 0.88337,1.76675 0.37383,0.43528 0.89362,0.84496 1.56447,1.20343 0.66829,0.38408 1.53374,0.56331 2.60403,0.56331 l 6.09655,0 0,9.7043 -9.78623,0 c -2.08425,-0.20484 -3.95598,-0.79376 -5.61262,-1.76675 -1.39291,-0.79375 -2.66036,-1.99718 -3.81002,-3.55909 -1.15223,-1.58751 -1.72066,-3.76394 -1.72066,-6.55488 l 0,-39.68775 9.78111,0 0,10.90773 9.22292,0 0,9.55066 -9.22292,0"
       style="fill:#ed184e;fill-opacity:1;fill-rule:nonzero;stroke:none"
       id="path4061"
       inkscape:connector-curvature="0" />
    <path
       d="m 488.53203,591.08131 c -1.9767,0 -3.56677,0.40969 -4.77021,1.20344 -1.20343,0.79376 -2.12521,1.79235 -2.76534,2.99579 -0.64268,1.20343 -1.07029,2.50929 -1.28537,3.89196 -0.21252,1.40827 -0.32006,2.68852 -0.32006,3.86635 0,1.17783 0.10754,2.45808 0.32006,3.84075 0.21508,1.38267 0.64269,2.68853 1.28537,3.89196 0.64013,1.20344 1.56191,2.20203 2.76534,2.99579 1.20344,0.81936 2.79351,1.20343 4.77021,1.20343 1.97927,0 3.56934,-0.38407 4.77278,-1.20343 1.20343,-0.79376 2.13801,-1.79235 2.80886,-2.99579 0.66573,-1.20343 1.10614,-2.50929 1.32122,-3.89196 0.21252,-1.38267 0.32263,-2.66292 0.32263,-3.84075 0,-1.45948 -0.0947,-2.89336 -0.28422,-4.30164 -0.18692,-1.40827 -0.58635,-2.68852 -1.19831,-3.84075 -0.61708,-1.15222 -1.53886,-2.074 -2.77047,-2.76534 -1.22904,-0.69133 -2.88568,-1.0498 -4.97249,-1.0498 z m 18.76847,32.2367 -9.54298,0 0,-5.6075 1.76418,-2.33005 c -0.91154,2.25324 -2.0612,3.94317 -3.45155,5.121 -1.3878,1.17783 -2.75254,2.0484 -4.08656,2.5861 -1.55423,0.58892 -3.15454,0.92179 -4.81374,1.0242 -3.31585,-0.0512 -6.2553,-0.79375 -8.82349,-2.22763 -1.11893,-0.64013 -2.20203,-1.45949 -3.24671,-2.45808 -1.03956,-0.9986 -1.97671,-2.22764 -2.80631,-3.73833 -0.8296,-1.48509 -1.49789,-3.27744 -2.00487,-5.35145 -0.50698,-2.09961 -0.76047,-4.53208 -0.76047,-7.29742 0,-2.79095 0.26629,-5.22342 0.80144,-7.29743 0.53258,-2.09961 1.24184,-3.89196 2.12521,-5.42826 0.88338,-1.51069 1.89733,-2.79094 3.04444,-3.81514 1.14966,-0.9986 2.31469,-1.84356 3.48996,-2.48369 2.77814,-1.48509 5.9634,-2.27884 9.54298,-2.40687 3.36962,0 6.2297,0.5121 8.5828,1.48509 2.3531,0.9986 4.2914,2.40687 5.8149,4.25043 1.52349,1.84356 2.63219,4.0968 3.32865,6.73412 0.69133,2.66292 1.04212,5.6587 1.04212,9.03856 l 0,20.20235"
       style="fill:#ed184e;fill-opacity:1;fill-rule:nonzero;stroke:none"
       id="path4063"
       inkscape:connector-curvature="0" />
    <path
       d="m 522.29479,582.65727 0,40.66074 -9.78367,0 0,-40.66074 9.78367,0 z m -9.78367,-9.06417 c 0,-1.17783 0.0154,-2.0484 0.0384,-2.63732 0.0282,-0.58891 0.18692,-1.0242 0.48138,-1.28025 0.29446,-0.28165 0.77583,-0.40968 1.44668,-0.46089 0.66573,-0.0256 1.64128,-0.0256 2.92409,-0.0256 1.28537,0 2.26092,0 2.92665,0.0256 0.66829,0.0512 1.14967,0.17924 1.44669,0.46089 0.28933,0.25605 0.45064,0.69134 0.48137,1.28025 0.023,0.58892 0.0384,1.45949 0.0384,2.63732 0,1.17783 -0.0154,2.074 -0.0384,2.66292 -0.0307,0.58891 -0.19204,0.99859 -0.48137,1.28025 -0.29702,0.25605 -0.7784,0.40968 -1.44669,0.43528 -0.66573,0.0256 -1.64128,0.0256 -2.92665,0.0256 -1.28281,0 -2.25836,0 -2.92409,-0.0256 -0.67085,-0.0256 -1.15222,-0.17923 -1.44668,-0.43528 -0.29446,-0.28166 -0.45321,-0.69134 -0.48138,-1.28025 -0.023,-0.58892 -0.0384,-1.48509 -0.0384,-2.66292"
       style="fill:#ed184e;fill-opacity:1;fill-rule:nonzero;stroke:none"
       id="path4065"
       inkscape:connector-curvature="0" />
    <path
       d="m 527.83059,623.31801 9.7819,0 0,-54.13256 -9.7819,0 0,54.13256 z"
       style="fill:#ed184e;fill-opacity:1;fill-rule:nonzero;stroke:none"
       id="path4067"
       inkscape:connector-curvature="0" />
    <path
       d="m 206.45865,512.96046 0,-7.34864 c -0.15004,-8.55207 -2.40047,-11.2662 -10.19489,-11.2662 -9.74705,0 -9.29384,7.50227 -9.29384,15.15816 l 0,3.45668 19.48873,0 z m -38.98156,-2.25324 c -0.89823,-19.9463 9.29666,-31.34052 28.48761,-31.34052 27.1372,0 29.98371,14.08275 29.98371,37.17846 l 0,11.39422 -38.97849,0 0,12.2904 c 0.14697,11.11257 4.34491,13.18658 10.19207,13.18658 7.19833,0 9.29666,-5.22342 8.99862,-15.8751 l 19.48873,0 c 0.75125,18.89649 -7.04726,30.87963 -26.98511,30.87963 -22.4904,0 -31.63625,-10.65168 -31.18714,-35.53974 l 0,-22.17393"
       style="fill:#3871c1;fill-opacity:1;fill-rule:nonzero;stroke:none"
       id="path4069"
       inkscape:connector-curvature="0" />
    <path
       d="m 254.46111,537.97654 0,5.94036 c 0,4.83935 1.57317,9.11538 7.86637,9.11538 4.6089,0 6.63041,-4.17361 6.63041,-8.42404 0,-7.09259 -5.84408,-9.78111 -11.01424,-12.93053 -6.06813,-3.48228 -11.23522,-6.73411 -14.94487,-11.01015 -3.59469,-4.27603 -5.73219,-9.44824 -5.73219,-16.87369 0,-15.82389 9.55502,-23.91507 24.83582,-23.91507 17.19248,0 25.9563,11.44543 25.05808,27.29493 l -18.2026,0 c -0.22507,-4.94177 0,-11.67588 -6.51724,-12.13677 -4.04789,-0.33287 -6.40637,1.92037 -6.85548,5.6331 -0.561,5.04418 2.02152,7.63029 5.95623,10.31881 7.41649,4.73693 13.82261,7.6559 18.42767,11.93193 4.60685,4.25043 7.30331,9.88353 7.30331,20.09993 0,16.18236 -8.98863,25.16971 -25.39376,25.16971 -18.09377,0 -25.73507,-10.11397 -25.73507,-21.22654 l 0,-8.98736 18.31756,0"
       style="fill:#3871c1;fill-opacity:1;fill-rule:nonzero;stroke:none"
       id="path4071"
       inkscape:connector-curvature="0" />
    <path
       d="m 295.93404,481.90159 19.775,0 0,63.60282 c 0,4.04559 1.23826,7.52787 6.85522,7.52787 5.17017,0 6.74231,-4.50648 6.74231,-8.09118 l 0,-63.03951 19.77705,0 0,61.01672 c 0,14.26198 -6.40432,25.27213 -26.63227,25.27213 -16.74234,0 -26.51731,-7.96315 -26.51731,-25.27213 l 0,-61.01672"
       style="fill:#3871c1;fill-opacity:1;fill-rule:nonzero;stroke:none"
       id="path4073"
       inkscape:connector-curvature="0" />
    <path
       d="m 380.11278,518.18388 c 3.70505,-0.10242 7.97596,0.33286 11.12025,-2.12522 2.0228,-2.25324 2.47345,-5.6331 2.47345,-8.55207 0,-3.25183 -0.33799,-8.1936 -3.70761,-9.7555 -1.91013,-0.69134 -4.6089,-0.69134 -7.75319,-0.69134 l -2.1329,0 0,21.12413 z m -19.78012,47.98377 0,-84.26606 23.48517,0 c 7.64053,0 18.6558,0.66573 24.15831,6.96456 4.6089,5.17221 5.50764,11.44544 5.50764,18.30758 0,9.11538 -2.13546,19.33177 -11.12281,23.47978 -6.85446,3.37986 -14.83298,2.38127 -22.24819,2.71413 l 0,32.80001 -19.78012,0"
       style="fill:#3871c1;fill-opacity:1;fill-rule:nonzero;stroke:none"
       id="path4075"
       inkscape:connector-curvature="0" />
    <path
       d="m 228.502,591.43978 c 22.05819,-9.39703 47.74333,-9.7555 63.83044,-2.66292 16.55722,6.96457 19.94502,17.59064 19.69485,17.20657 0.13699,-0.10242 -9.55885,-2.63732 -22.49348,-0.61452 -13.00452,1.66432 -28.66863,8.2192 -47.09911,15.8751 -3.84869,1.58751 -11.03012,4.6345 -17.5553,5.70991 -6.54336,1.40828 -13.17377,1.38267 -19.15894,0.74254 -12.10528,-1.33146 -21.64621,-5.83793 -28.43845,-10.39563 -13.64362,-9.32022 -17.68845,-19.51101 -17.75143,-19.38298 -0.053,-0.0768 9.82694,2.71413 23.65159,3.6103 6.86521,0.43529 14.60484,0.17924 21.93734,-1.40827 3.66459,-0.81936 7.29538,-1.68993 10.79097,-3.20063 3.68482,-1.30585 6.30831,-2.84215 12.59152,-5.47947"
       style="fill:#3871c1;fill-opacity:1;fill-rule:nonzero;stroke:none"
       id="path4077"
       inkscape:connector-curvature="0" />
  </g>
</svg>
